<svg version="1.1" xmlns="http://www.w3.org/2000/svg" width="1024" height="1024"><path d="M0 0 C337.92 0 675.84 0 1024 0 C1024 337.92 1024 675.84 1024 1024 C686.08 1024 348.16 1024 0 1024 C0 686.08 0 348.16 0 0 Z " fill="#FCFCFD" transform="translate(0,0)"></path><path d="M0 0 C2.96034283 3.2294649 3.98529464 4.96324395 4.25 9.375 C4.0625 12.25 4.0625 12.25 3.0625 14.25 C0.94672018 15.07485466 -1.20950553 15.79632225 -3.37695312 16.47387695 C-4.05333958 16.68763631 -4.72972603 16.90139566 -5.42660904 17.12163258 C-7.68844315 17.83444959 -9.95352902 18.53630857 -12.21875 19.23828125 C-13.80988553 19.73742826 -15.40080394 20.2372679 -16.99151611 20.73776245 C-20.37672528 21.8013109 -23.76337071 22.86010323 -27.15124512 23.91513062 C-32.43945721 25.56196848 -37.72438708 27.21915719 -43.00878906 28.87817383 C-49.91420393 31.0452256 -56.8208204 33.20839264 -63.72851562 35.36816406 C-74.38875789 38.70174068 -85.04153057 42.05861476 -95.6875 45.4375 C-96.46176331 45.6831369 -97.23602661 45.9287738 -98.03375244 46.18185425 C-109.6017966 49.85376338 -121.16132821 53.55243392 -132.71008301 57.28457642 C-134.39515263 57.82875218 -136.08059496 58.37177577 -137.76647949 58.91342163 C-147.58689292 62.07117378 -157.30791924 65.41332485 -166.95419312 69.07272339 C-172.73390791 71.25 -172.73390791 71.25 -174.9375 71.25 C-174.9375 71.91 -174.9375 72.57 -174.9375 73.25 C-173.90496094 73.62125 -173.90496094 73.62125 -172.8515625 74 C-169.46646165 75.45205398 -166.42953181 77.30908017 -163.3125 79.25 C-157.32839366 82.90016918 -151.25111986 86.33351862 -145.0625 89.625 C-144.29083496 90.04136719 -143.51916992 90.45773437 -142.72412109 90.88671875 C-133.77814521 95.59452178 -125.64937057 98.80424924 -115.45739746 96.44412231 C-114.29260864 96.06569183 -113.12781982 95.68726135 -111.92773438 95.29736328 C-110.94969849 94.98495949 -110.94969849 94.98495949 -109.9519043 94.66624451 C-107.80799946 93.97848868 -105.66981712 93.27447259 -103.53125 92.5703125 C-102.00542792 92.07754395 -100.47925612 91.58585712 -98.95275879 91.09518433 C-94.92414214 89.79726995 -90.90009003 88.48574608 -86.87695312 87.17095947 C-82.90471449 85.8748735 -78.92892522 84.58979857 -74.953125 83.3046875 C-73.3808216 82.79637864 -71.80852545 82.28804736 -70.23623657 81.7796936 C-69.45973377 81.52864491 -68.68323097 81.27759621 -67.88319778 81.01893997 C-65.52940103 80.25721415 -63.17618751 79.49370951 -60.8230896 78.72982788 C-49.13928862 74.94020481 -37.42772876 71.24595153 -25.69299316 67.61721802 C-17.19228406 64.98253901 -8.74524391 62.21829432 -0.3125 59.375 C13.36971567 54.76869137 27.1219558 50.40396687 40.90087891 46.09619141 C41.69581757 45.84709518 42.49075623 45.59799896 43.30978394 45.34135437 C44.80874466 44.87186116 46.30817429 44.40386163 47.80813599 43.93757629 C51.51128969 42.78883555 51.51128969 42.78883555 55.0625 41.25 C58.81245483 40.72500632 62.47444587 40.44427148 65.91796875 42.19140625 C69.25381968 44.81890365 70.88594155 47.2457313 72.0625 51.25 C72.35068013 54.40272891 72.34089995 57.54134149 72.32992554 60.70549011 C72.33445665 61.66234138 72.33898776 62.61919265 72.34365618 63.60503942 C72.35632421 66.81380899 72.35467824 70.02240935 72.35302734 73.23120117 C72.35901117 75.53095722 72.36581638 77.83071126 72.37338257 80.13046265 C72.39106669 86.3806494 72.39573903 92.6307814 72.39701414 98.88099074 C72.39891287 104.09949425 72.4062703 109.31798499 72.41335833 114.53648359 C72.42871911 126.14770751 72.43469543 137.75890474 72.43334763 149.37013801 C72.43326772 150.06662772 72.4331878 150.76311743 72.43310547 151.48071289 C72.43302371 152.17805675 72.43294195 152.87540061 72.43285771 153.5938761 C72.43204537 164.88711494 72.45116992 176.18022023 72.4793822 187.47342046 C72.50814482 199.078866 72.52155473 210.68424037 72.52019465 222.28972226 C72.51968501 228.80137025 72.52536904 235.31286718 72.54655075 241.82448387 C72.56593738 247.95176773 72.56605436 254.07875652 72.55151749 260.20605087 C72.54942869 262.45137654 72.55413441 264.69672068 72.5662384 266.94201469 C72.58172684 270.01488497 72.57235832 273.08674244 72.55697632 276.15959167 C72.56726344 277.04142551 72.57755057 277.92325935 72.58814943 278.83181542 C72.50848213 286.06806251 70.861323 293.12190371 65.9375 298.625 C56.30057532 304.07195743 45.18031294 306.88993045 34.6875 310.25 C17.86614094 315.6490633 1.10354861 321.2171886 -15.65205288 326.8161726 C-23.73402335 329.51679838 -31.81805718 332.21122012 -39.90226746 334.90513229 C-43.94469433 336.25225886 -47.98698902 337.59978196 -52.02929688 338.94726562 C-53.64379819 339.48543485 -55.25830015 340.02360217 -56.87280273 340.56176758 C-57.67451904 340.82900635 -58.47623535 341.09624512 -59.30224609 341.37158203 C-68.1103363 344.3076121 -76.91842651 347.24364217 -85.72651672 350.17967224 C-86.42611354 350.41296014 -87.12571035 350.64624804 -87.84650707 350.88660526 C-89.21415057 351.34230872 -90.58200547 351.79737825 -91.95008564 352.25176907 C-95.34582139 353.38048143 -98.73672601 354.52125331 -102.1211853 355.68338013 C-102.79852817 355.91414277 -103.47587103 356.14490541 -104.17373943 356.38266087 C-106.02814535 357.01495335 -107.88085772 357.65220655 -109.73344421 358.28981018 C-120.37619708 361.47922498 -128.44552871 357.60103288 -137.96264648 352.68847656 C-141.01556117 351.01220974 -144.04272198 349.29772246 -147.0625 347.5625 C-149.25096042 346.31710775 -151.43976504 345.07232017 -153.62890625 343.828125 C-155.22822998 342.91643555 -155.22822998 342.91643555 -156.85986328 341.98632812 C-159.64995912 340.4122236 -162.45527437 338.87519878 -165.27734375 337.359375 C-179.42229862 329.7574225 -189.09751139 322.64413902 -194.28958309 306.76808822 C-195.3609795 302.60417364 -195.36109622 298.55473196 -195.33863831 294.27552795 C-195.34543498 293.31117543 -195.35223164 292.34682291 -195.35923427 291.35324758 C-195.37812537 288.1430202 -195.37577468 284.93317698 -195.37329102 281.72290039 C-195.38227341 279.41269951 -195.39248276 277.10250313 -195.40382385 274.79231262 C-195.43027477 268.53201902 -195.43735514 262.2718485 -195.43927121 256.01150441 C-195.44140615 252.09783546 -195.44781552 248.18419763 -195.45576286 244.27053642 C-195.48206732 231.31468912 -195.49602487 218.35892898 -195.49377144 205.40305621 C-195.49365157 204.70584112 -195.4935317 204.00862603 -195.4934082 203.2902832 C-195.49322424 202.2431745 -195.49322424 202.2431745 -195.49303656 201.17491209 C-195.49181693 189.85922345 -195.52053873 178.54383415 -195.5628233 167.22823209 C-195.60596456 155.59100516 -195.62608241 143.95393784 -195.62404197 132.31662935 C-195.62327774 125.79043341 -195.63179235 119.26457665 -195.66357613 112.738451 C-195.69265221 106.60114661 -195.69283507 100.46450502 -195.67102623 94.32717705 C-195.66789303 92.0786174 -195.67495192 89.83001624 -195.6931076 87.58152771 C-195.86091114 65.35571985 -195.86091114 65.35571985 -188.9375 58.25 C-181.83536033 51.90402405 -172.67177167 49.26972069 -163.8125 46.25 C-162.98338104 45.96298218 -162.15426208 45.67596436 -161.30001831 45.38024902 C-139.80814469 37.95103332 -118.04160646 31.34252285 -96.30371094 24.67724609 C-93.99973671 23.97070915 -91.69576346 23.26416908 -89.39181137 22.55755997 C-87.85734853 22.08695088 -86.32285604 21.61643847 -84.78833389 21.1460228 C-74.51819091 17.99559403 -64.27016565 14.78336348 -54.04417992 11.49240112 C-52.02864602 10.84389759 -50.01261033 10.19697847 -47.99641418 9.55053711 C-40.45292589 7.13086575 -40.45292589 7.13086575 -32.91799927 4.68469238 C-29.54519306 3.58326077 -26.16774176 2.49731789 -22.7890625 1.4140625 C-21.81421402 1.09021576 -20.83936554 0.76636902 -19.8349762 0.43270874 C-13.21334024 -1.66966077 -6.28881492 -3.74652804 0 0 Z " fill="#83BADD" transform="translate(354.9375,319.75)"></path><path d="M0 0 C2.96034283 3.2294649 3.98529464 4.96324395 4.25 9.375 C4.0625 12.25 4.0625 12.25 3.0625 14.25 C0.94672018 15.07485466 -1.20950553 15.79632225 -3.37695312 16.47387695 C-4.05333958 16.68763631 -4.72972603 16.90139566 -5.42660904 17.12163258 C-7.68844315 17.83444959 -9.95352902 18.53630857 -12.21875 19.23828125 C-13.80988553 19.73742826 -15.40080394 20.2372679 -16.99151611 20.73776245 C-20.37672528 21.8013109 -23.76337071 22.86010323 -27.15124512 23.91513062 C-32.43945721 25.56196848 -37.72438708 27.21915719 -43.00878906 28.87817383 C-49.91420393 31.0452256 -56.8208204 33.20839264 -63.72851562 35.36816406 C-74.38875789 38.70174068 -85.04153057 42.05861476 -95.6875 45.4375 C-96.46176331 45.6831369 -97.23602661 45.9287738 -98.03375244 46.18185425 C-109.6017966 49.85376338 -121.16132821 53.55243392 -132.71008301 57.28457642 C-134.39515263 57.82875218 -136.08059496 58.37177577 -137.76647949 58.91342163 C-147.58689292 62.07117378 -157.30791924 65.41332485 -166.95419312 69.07272339 C-172.73390791 71.25 -172.73390791 71.25 -174.9375 71.25 C-174.9375 71.91 -174.9375 72.57 -174.9375 73.25 C-173.90496094 73.62125 -173.90496094 73.62125 -172.8515625 74 C-169.46644766 75.45205999 -166.42958307 77.30915099 -163.3125 79.25 C-157.36770507 82.87471094 -151.33391008 86.29128075 -145.1875 89.5625 C-144.43259277 89.97048828 -143.67768555 90.37847656 -142.89990234 90.79882812 C-136.96678391 93.92246687 -131.38302251 95.90617363 -124.9375 98.25 C-124.9375 184.05 -124.9375 269.85 -124.9375 358.25 C-136.1845411 353.75118356 -136.1845411 353.75118356 -140.75 351.1484375 C-142.25639038 350.2968103 -142.25639038 350.2968103 -143.79321289 349.42797852 C-145.34963501 348.53550415 -145.34963501 348.53550415 -146.9375 347.625 C-149.14419172 346.37049633 -151.35122547 345.11659411 -153.55859375 343.86328125 C-154.63737793 343.2492041 -155.71616211 342.63512695 -156.82763672 342.00244141 C-159.63146023 340.4224567 -162.45002452 338.87834874 -165.28515625 337.35546875 C-179.42696367 329.75446101 -189.09865955 322.64062825 -194.28958309 306.76808822 C-195.3609795 302.60417364 -195.36109622 298.55473196 -195.33863831 294.27552795 C-195.34543498 293.31117543 -195.35223164 292.34682291 -195.35923427 291.35324758 C-195.37812537 288.1430202 -195.37577468 284.93317698 -195.37329102 281.72290039 C-195.38227341 279.41269951 -195.39248276 277.10250313 -195.40382385 274.79231262 C-195.43027477 268.53201902 -195.43735514 262.2718485 -195.43927121 256.01150441 C-195.44140615 252.09783546 -195.44781552 248.18419763 -195.45576286 244.27053642 C-195.48206732 231.31468912 -195.49602487 218.35892898 -195.49377144 205.40305621 C-195.49365157 204.70584112 -195.4935317 204.00862603 -195.4934082 203.2902832 C-195.49322424 202.2431745 -195.49322424 202.2431745 -195.49303656 201.17491209 C-195.49181693 189.85922345 -195.52053873 178.54383415 -195.5628233 167.22823209 C-195.60596456 155.59100516 -195.62608241 143.95393784 -195.62404197 132.31662935 C-195.62327774 125.79043341 -195.63179235 119.26457665 -195.66357613 112.738451 C-195.69265221 106.60114661 -195.69283507 100.46450502 -195.67102623 94.32717705 C-195.66789303 92.0786174 -195.67495192 89.83001624 -195.6931076 87.58152771 C-195.86091114 65.35571985 -195.86091114 65.35571985 -188.9375 58.25 C-181.83536033 51.90402405 -172.67177167 49.26972069 -163.8125 46.25 C-162.98338104 45.96298218 -162.15426208 45.67596436 -161.30001831 45.38024902 C-139.80814469 37.95103332 -118.04160646 31.34252285 -96.30371094 24.67724609 C-93.99973671 23.97070915 -91.69576346 23.26416908 -89.39181137 22.55755997 C-87.85734853 22.08695088 -86.32285604 21.61643847 -84.78833389 21.1460228 C-74.51819091 17.99559403 -64.27016565 14.78336348 -54.04417992 11.49240112 C-52.02864602 10.84389759 -50.01261033 10.19697847 -47.99641418 9.55053711 C-40.45292589 7.13086575 -40.45292589 7.13086575 -32.91799927 4.68469238 C-29.54519306 3.58326077 -26.16774176 2.49731789 -22.7890625 1.4140625 C-21.81421402 1.09021576 -20.83936554 0.76636902 -19.8349762 0.43270874 C-13.21334024 -1.66966077 -6.28881492 -3.74652804 0 0 Z " fill="#1E364B" transform="translate(354.9375,319.75)"></path><path d="M0 0 C4.95 0 9.9 0 15 0 C15.33 10.89 15.66 21.78 16 33 C18.97 30.525 18.97 30.525 22 28 C28.68116892 24.73710355 36.81634927 25.08733854 43.8125 27.25 C51.89044044 30.34582388 57.37662025 35.31232108 61.12109375 43.05078125 C63.37046571 48.24849746 63.56387779 52.89861018 63.4375 58.5 C63.44458984 59.38558594 63.45167969 60.27117187 63.45898438 61.18359375 C63.36069473 71.4813245 60.6346008 78.40797546 53.4375 85.82421875 C46.46661698 92.04662555 39.74777923 92.64898579 30.5390625 92.390625 C23.87921102 91.65554205 19.36410026 89.0914503 15 84 C14.67 86.31 14.34 88.62 14 91 C9.38 91 4.76 91 0 91 C0 60.97 0 30.94 0 0 Z " fill="#1E3342" transform="translate(568,409)"></path><path d="M0 0 C4.62 0 9.24 0 14 0 C14 29.04 14 58.08 14 88 C9.71 88 5.42 88 1 88 C0.67 86.02 0.34 84.04 0 82 C-1.36125 83.175625 -1.36125 83.175625 -2.75 84.375 C-8.74390716 89.55155618 -14.45554404 89.50552065 -22.07421875 89.3046875 C-29.0902904 88.76015657 -32.86591064 86.4148069 -37.75 81.5 C-45.32487279 72.07041008 -46.14567071 60.61025057 -45 49 C-43.21555568 40.39454367 -39.11935658 34.06097275 -32.26171875 28.62109375 C-26.12796151 24.8515256 -18.94386419 25.18355031 -12 26 C-7.43877682 27.4188934 -4.39636858 29.60363142 -1 33 C-0.67 22.11 -0.34 11.22 0 0 Z " fill="#1B2F3F" transform="translate(919,525)"></path><path d="M0 0 C3.0625 1.9375 3.0625 1.9375 5 5 C5.66488803 8.01214427 5.88077333 10.92565507 6 14 C-0.85063553 16.84563348 -7.75123213 19.30855517 -14.82421875 21.5390625 C-15.8347934 21.86110657 -16.84536804 22.18315063 -17.88656616 22.51495361 C-21.15248894 23.55498715 -24.41998091 24.58999386 -27.6875 25.625 C-29.97530792 26.35262224 -32.26298598 27.0806529 -34.55053711 27.80908203 C-37.9547464 28.89305956 -41.35902447 29.97681279 -44.76374817 31.05917358 C-52.87232573 33.63724897 -60.96989515 36.24720363 -69.0625 38.875 C-83.58072729 43.57663603 -98.13418434 48.16746069 -112.68632126 52.76279449 C-114.60268793 53.36795418 -116.51901085 53.9732524 -118.43533325 54.57855225 C-122.07386139 55.72752982 -125.71265142 56.87567337 -129.3515625 58.0234375 C-130.43280899 58.36475708 -131.51405548 58.70607666 -132.62806702 59.05773926 C-134.70350766 59.71182214 -136.77971187 60.36348796 -138.85673523 61.01252747 C-141.0776469 61.71023811 -143.29513325 62.41889696 -145.51008606 63.13529968 C-146.6597435 63.50194229 -147.80940094 63.8685849 -148.99389648 64.24633789 C-150.0312645 64.58129776 -151.06863251 64.91625763 -152.13743591 65.2613678 C-160.13792179 67.32574656 -166.18763043 64.3720222 -173.0625 60.4375 C-173.83271484 60.01275391 -174.60292969 59.58800781 -175.39648438 59.15039062 C-177.27182265 58.11371294 -179.1370324 57.05874737 -181 56 C-180 54 -180 54 -177.64379883 53.04541016 C-176.59216553 52.71331543 -175.54053223 52.3812207 -174.45703125 52.0390625 C-173.25748306 51.65617065 -172.05793488 51.27327881 -170.82203674 50.87878418 C-169.4855702 50.46071 -168.14905644 50.0427867 -166.8125 49.625 C-165.42300399 49.18461791 -164.03372092 48.74356345 -162.64463806 48.30187988 C-158.88360869 47.10808417 -155.11966758 45.92372212 -151.3551445 44.74099731 C-147.41544186 43.50145168 -143.4784973 42.25320811 -139.54125977 41.00585938 C-132.32313413 38.72049844 -125.10270593 36.44251579 -117.88114452 34.16803741 C-109.11840792 31.40796956 -100.35877696 28.63810545 -91.59916687 25.86813354 C-85.72366149 24.0106941 -79.84723873 22.15628349 -73.96850586 20.30908203 C-62.97346842 16.85213685 -51.99306959 13.35845221 -41.0390625 9.7734375 C-38.00457459 8.78609039 -34.96976036 7.79975295 -31.93484497 6.8137207 C-29.15922702 5.90661168 -26.38912157 4.98396579 -23.61889648 4.06054688 C-6.75476105 -1.47170264 -6.75476105 -1.47170264 0 0 Z " fill="#7FB8DC" transform="translate(387,340)"></path><path d="M0 0 C9.00073281 4.92979068 14.54630411 11.55736129 17.609375 21.39453125 C19.33109007 30.39910107 18.03243267 39.24838603 14 47.4375 C8.4121791 55.5465069 1.73906274 60.45667368 -8 62.4375 C-17.36748004 63.49796944 -25.95256372 61.21417396 -33.375 55.3125 C-39.97016222 49.04235604 -43.0483636 40.8547038 -43.29272461 31.90429688 C-43.39468497 21.11915684 -41.52973509 13.22838119 -33.9375 5.12890625 C-25.25106819 -2.45420862 -10.6706468 -4.38058132 0 0 Z " fill="#1C3040" transform="translate(621,552.5625)"></path><path d="M0 0 C4.23753389 3.83395923 7.13675189 8.35914917 8.06167603 14.07229614 C8.19990574 17.05166027 8.18832178 19.99107988 8.11328125 22.97265625 C8.10620651 24.04752792 8.09913177 25.1223996 8.09184265 26.22984314 C8.06405181 29.63313005 8.00133981 33.03471782 7.9375 36.4375 C7.91239745 38.75713755 7.88958773 41.07680112 7.86914062 43.39648438 C7.81427494 49.05663543 7.7281071 54.71553053 7.625 60.375 C3.335 60.375 -0.955 60.375 -5.375 60.375 C-5.87 57.405 -5.87 57.405 -6.375 54.375 C-7.261875 55.15875 -8.14875 55.9425 -9.0625 56.75 C-14.8958709 61.90507196 -21.22782403 61.88908461 -28.703125 61.68359375 C-35.52558462 61.11021682 -39.32331502 58.79769861 -43.8125 53.75 C-47.75196809 48.83371558 -47.84560909 44.91448466 -47.76953125 38.6484375 C-47.28437457 34.62307813 -46.38490349 32.55609108 -43.38256836 29.86010742 C-36.59250926 24.83713169 -28.02453215 23.51306765 -19.875 22.25 C-17.92592877 21.94211799 -15.97792794 21.62735603 -14.03125 21.3046875 C-13.18369141 21.17304199 -12.33613281 21.04139648 -11.46289062 20.90576172 C-9.17201287 20.51274474 -9.17201287 20.51274474 -7.375 18.375 C-6.87492206 14.91713985 -6.87492206 14.91713985 -7.375 11.375 C-10.77320578 7.85961471 -14.50923059 7.2114578 -19.25 7.125 C-23.46071505 7.19242047 -26.19031274 7.38332409 -29.375 10.375 C-30.63301846 12.67625328 -31.48408506 14.88981621 -32.375 17.375 C-36.665 16.715 -40.955 16.055 -45.375 15.375 C-45.17093106 9.55903519 -44.29215893 6.18228409 -40.2578125 1.9140625 C-28.72090237 -7.51652379 -12.68916306 -6.10959703 0 0 Z " fill="#1C2F3F" transform="translate(730.375,439.625)"></path><path d="M0 0 C7.94800563 4.83087609 11.65623779 11.15140194 14.3125 19.9375 C14.3125 24.2275 14.3125 28.5175 14.3125 32.9375 C0.4525 32.9375 -13.4075 32.9375 -27.6875 32.9375 C-25.24009072 42.6242036 -25.24009072 42.6242036 -18.6875 47.9375 C-15.48538792 49.53855604 -12.17003365 49.29418408 -8.6875 48.9375 C-3.94565429 47.23759305 -1.88867018 45.46212758 0.3125 40.9375 C5.15909077 41.52854765 8.91998167 42.91694157 13.3125 44.9375 C10.02180682 51.65599857 5.59724936 57.10641053 -1.4296875 60.109375 C-9.47721138 62.15502855 -19.61619325 62.43373686 -27.3125 59 C-35.33644545 54.14735838 -39.48006186 46.83373626 -41.6875 37.9375 C-43.1121157 28.02485436 -42.71816934 18.14706952 -37.53515625 9.3984375 C-28.71722785 -2.34637199 -13.59511292 -6.30017428 0 0 Z " fill="#1A2E3D" transform="translate(790.6875,553.0625)"></path><path d="M0 0 C17.16 0 34.32 0 52 0 C52 4.62 52 9.24 52 14 C39.79 14 27.58 14 15 14 C15 21.59 15 29.18 15 37 C26.88 37 38.76 37 51 37 C51 41.29 51 45.58 51 50 C39.12 50 27.24 50 15 50 C15 61.88 15 73.76 15 86 C10.05 86 5.1 86 0 86 C0 57.62 0 29.24 0 0 Z " fill="#1E3242" transform="translate(478,527)"></path><path d="M0 0 C5.61 0 11.22 0 17 0 C20.7795116 8.85625816 24.21883096 17.79066754 27.50415039 26.83959961 C28.3233753 29.09240626 29.15078252 31.34210441 29.97851562 33.59179688 C30.50309852 35.03106992 31.02720529 36.4705166 31.55078125 37.91015625 C31.79758133 38.57886246 32.04438141 39.24756866 32.29866028 39.9365387 C33.32197767 42.77541846 34 44.95522917 34 48 C34.66 48 35.32 48 36 48 C36.15758789 46.55826416 36.15758789 46.55826416 36.31835938 45.08740234 C36.98935431 40.42071155 38.43095884 36.06753126 39.90625 31.6015625 C40.19101196 30.72599701 40.47577393 29.85043152 40.76916504 28.94833374 C41.36826919 27.11032998 41.97016423 25.27323382 42.57470703 23.43701172 C43.50324493 20.61513849 44.4222026 17.79027701 45.33984375 14.96484375 C45.92392144 13.17690104 46.50853765 11.38913414 47.09375 9.6015625 C47.36981079 8.75373199 47.64587158 7.90590149 47.93029785 7.03237915 C49.88403322 1.11596678 49.88403322 1.11596678 51 0 C53.53049402 -0.07313567 56.03304837 -0.09247527 58.5625 -0.0625 C59.62887695 -0.05573242 59.62887695 -0.05573242 60.71679688 -0.04882812 C62.47790013 -0.03700864 64.23896036 -0.01907263 66 0 C63.30358237 9.86003463 59.49472337 19.2534 55.75 28.75 C55.04330757 30.55057736 54.33693204 32.35127913 53.63085938 34.15209961 C51.4263335 39.77034052 49.21357216 45.38531852 47 51 C46.26102189 52.87579575 45.5220893 54.75160944 44.78320312 56.62744141 C40.53058617 67.42164313 36.26855307 78.21209072 32 89 C27.05 89 22.1 89 17 89 C17.7435439 85.28228049 18.36132238 82.87657679 19.8828125 79.56640625 C20.24503906 78.75236328 20.60726562 77.93832031 20.98046875 77.09960938 C21.74335487 75.40850174 22.51420264 73.72096318 23.29296875 72.03710938 C23.65261719 71.22177734 24.01226563 70.40644531 24.3828125 69.56640625 C24.71684082 68.83365479 25.05086914 68.10090332 25.39501953 67.34594727 C26.83071388 61.77872087 24.25023623 56.78862618 21.97265625 51.78515625 C21.66779297 51.10041733 21.36292969 50.41567841 21.04882812 49.71018982 C20.39662248 48.24748331 19.74127195 46.78617566 19.08303833 45.32617188 C18.05552117 43.04702014 17.03625403 40.76434568 16.01928711 38.48046875 C14.65872789 35.42605795 13.29543787 32.37289383 11.9296875 29.32080078 C9.27932781 23.39273563 6.66277722 17.4502145 4.0625 11.5 C3.64427979 10.55261963 3.22605957 9.60523926 2.79516602 8.62915039 C2.42061279 7.77184326 2.04605957 6.91453613 1.66015625 6.03125 C1.33668213 5.29455078 1.01320801 4.55785156 0.67993164 3.79882812 C0 2 0 2 0 0 Z " fill="#1C3040" transform="translate(793,436)"></path><path d="M0 0 C5.49548806 2.50175552 9.14908878 6.28534487 11.60888672 11.83837891 C12.81202674 16.58613912 12.73522243 21.07940567 12.68359375 25.95703125 C12.68076385 26.96955963 12.67793396 27.98208801 12.67501831 29.02529907 C12.66386379 32.24485313 12.63876771 35.4641244 12.61328125 38.68359375 C12.60324535 40.8723918 12.59412056 43.06119424 12.5859375 45.25 C12.5639399 50.60297279 12.52944247 55.9557354 12.48828125 61.30859375 C7.86828125 61.30859375 3.24828125 61.30859375 -1.51171875 61.30859375 C-1.52106445 60.09800293 -1.53041016 58.88741211 -1.54003906 57.64013672 C-1.58001823 53.13341965 -1.64579915 48.62737953 -1.71923828 44.12109375 C-1.74740196 42.1735913 -1.76863935 40.22597553 -1.78271484 38.27832031 C-1.80420821 35.47271907 -1.85089073 32.66847375 -1.90234375 29.86328125 C-1.90357239 28.99742401 -1.90480103 28.13156677 -1.90606689 27.23947144 C-2.04025185 21.65667832 -2.91745238 18.62730561 -6.51171875 14.30859375 C-9.47653057 11.97909875 -12.7515379 11.82228238 -16.48046875 11.93359375 C-20.20943924 12.62201907 -22.04774512 14.55128993 -24.51171875 17.30859375 C-26.44431469 22.6317307 -26.84234503 27.50098469 -26.92578125 33.0859375 C-26.9451474 33.89728653 -26.96451355 34.70863556 -26.98446655 35.54457092 C-27.04378841 38.11164147 -27.09045611 40.67875804 -27.13671875 43.24609375 C-27.17494227 44.99676331 -27.21399649 46.74741494 -27.25390625 48.49804688 C-27.34945031 52.76808191 -27.43365412 57.03820485 -27.51171875 61.30859375 C-32.13171875 61.30859375 -36.75171875 61.30859375 -41.51171875 61.30859375 C-41.51171875 41.17859375 -41.51171875 21.04859375 -41.51171875 0.30859375 C-36.89171875 0.30859375 -32.27171875 0.30859375 -27.51171875 0.30859375 C-27.18171875 2.61859375 -26.85171875 4.92859375 -26.51171875 7.30859375 C-25.70734375 6.16390625 -25.70734375 6.16390625 -24.88671875 4.99609375 C-18.59024155 -2.1288673 -8.77498619 -2.41550942 0 0 Z " fill="#1D3141" transform="translate(854.51171875,551.69140625)"></path><path d="M0 0 C4.87480735 2.1717593 8.15346724 5.55836244 10.48046875 10.34765625 C12.54525348 16.21387085 12.74472441 21.46949297 12.67578125 27.65625 C12.67295135 28.62297134 12.67012146 29.58969269 12.66720581 30.58570862 C12.65607282 33.65232077 12.63098099 36.7186334 12.60546875 39.78515625 C12.59543006 41.87304264 12.58630576 43.96093363 12.578125 46.04882812 C12.55615602 51.14855169 12.52167382 56.2480533 12.48046875 61.34765625 C7.86046875 61.34765625 3.24046875 61.34765625 -1.51953125 61.34765625 C-1.53411377 60.1673584 -1.54869629 58.98706055 -1.5637207 57.77099609 C-1.62185822 53.3761625 -1.69909006 48.98183299 -1.78198242 44.58740234 C-1.81515918 42.68839726 -1.84321356 40.78929529 -1.8659668 38.89013672 C-1.89964643 36.1542039 -1.95196845 33.41915314 -2.0078125 30.68359375 C-2.01420242 29.83961029 -2.02059235 28.99562683 -2.0271759 28.12606812 C-2.15032253 23.14663388 -2.78260342 19.66894593 -5.51953125 15.34765625 C-9.02383949 12.34396348 -12.12137767 11.85974883 -16.59375 12.0703125 C-19.60582835 12.50410066 -21.23889714 13.32766604 -23.51953125 15.34765625 C-26.42339986 20.85807055 -26.9829948 25.39309717 -27.03125 31.5625 C-27.0492012 32.41824112 -27.0671524 33.27398224 -27.08564758 34.15565491 C-27.13945156 36.86543986 -27.17354938 39.57505175 -27.20703125 42.28515625 C-27.24023081 44.13218539 -27.27472289 45.97919177 -27.31054688 47.82617188 C-27.39516047 52.33320783 -27.46211338 56.84019513 -27.51953125 61.34765625 C-32.13953125 61.34765625 -36.75953125 61.34765625 -41.51953125 61.34765625 C-41.51953125 41.21765625 -41.51953125 21.08765625 -41.51953125 0.34765625 C-36.89953125 0.34765625 -32.27953125 0.34765625 -27.51953125 0.34765625 C-27.18953125 2.32765625 -26.85953125 4.30765625 -26.51953125 6.34765625 C-25.15828125 5.17203125 -25.15828125 5.17203125 -23.76953125 3.97265625 C-16.99219282 -1.88049966 -8.57921118 -2.22128414 0 0 Z " fill="#1A2E3D" transform="translate(688.51953125,551.65234375)"></path><path d="M0 0 C4.95 0 9.9 0 15 0 C15 24.42 15 48.84 15 74 C27.54 74 40.08 74 53 74 C53 78.62 53 83.24 53 88 C35.51 88 18.02 88 0 88 C0 58.96 0 29.92 0 0 Z " fill="#1A2E3E" transform="translate(478,412)"></path><path d="M0 0 C3.1875 0.4375 3.1875 0.4375 6.1875 2.3125 C8.1875 5.4375 8.1875 5.4375 8.05366516 7.52326965 C7.87264755 8.31070053 7.69162994 9.09813141 7.50512695 9.90942383 C7.30295563 10.8001358 7.1007843 11.69084778 6.89248657 12.60855103 C5.69155855 17.42759897 4.42416384 22.22356205 3.10546875 27.01171875 C2.47635885 29.32191455 1.84797554 31.6323083 1.22021484 33.94287109 C0.88922791 35.15956482 0.55824097 36.37625854 0.21722412 37.62982178 C-1.38798272 43.56550008 -2.95925325 49.51004136 -4.5290184 55.45517349 C-5.07569528 57.52512202 -5.62317552 59.59485638 -6.17092896 61.66452026 C-7.65962262 67.28966691 -9.14809489 72.9148688 -10.63208008 78.54125977 C-11.55859861 82.05372789 -12.48771775 85.56549957 -13.41846657 89.07684898 C-13.92979762 91.00865822 -14.43842497 92.94118247 -14.94694519 94.87373352 C-15.88277223 98.40066367 -16.83913584 101.92075243 -17.8125 105.4375 C-18.15052643 106.66238129 -18.48855286 107.88726257 -18.83682251 109.14926147 C-19.17660126 110.32421173 -19.51638 111.49916199 -19.86645508 112.7097168 C-20.16804031 113.7635405 -20.46962555 114.8173642 -20.78034973 115.90312195 C-21.8125 118.4375 -21.8125 118.4375 -24.8125 120.4375 C-27.9000593 120.75912076 -29.95265561 120.92474515 -32.6875 119.375 C-35.42860955 114.65420022 -33.58641512 108.76927545 -32.28935242 103.78019714 C-32.06495987 102.95296646 -31.84056732 102.12573578 -31.609375 101.2734375 C-31.3755159 100.38404984 -31.1416568 99.49466217 -30.90071106 98.57832336 C-30.12957913 95.65412157 -29.34620745 92.73335422 -28.5625 89.8125 C-28.02004549 87.76687015 -27.4783082 85.72104999 -26.93725586 83.67504883 C-25.80873629 79.41400994 -24.67484852 75.15445187 -23.53662109 70.89599609 C-22.12582239 65.61671473 -20.72508832 60.33484311 -19.32907104 55.05163574 C-18.01399781 50.07530781 -16.69460706 45.10012721 -15.375 40.125 C-15.13060181 39.20217224 -14.88620361 38.27934448 -14.63439941 37.32855225 C-12.19299242 28.12187254 -9.71550269 18.92560469 -7.08984375 9.76953125 C-6.88952042 9.05488205 -6.68919708 8.34023285 -6.48280334 7.60392761 C-4.46989763 0.69531741 -4.46989763 0.69531741 0 0 Z " fill="#1B303E" transform="translate(340.8125,453.5625)"></path><path d="M0 0 C4.95 0 9.9 0 15 0 C15 5.28 15 10.56 15 16 C19.62 16 24.24 16 29 16 C29 19.96 29 23.92 29 28 C24.38 28 19.76 28 15 28 C15.0441119 32.93026507 15.11389864 37.85924437 15.20751953 42.78881836 C15.23574768 44.4657976 15.2569531 46.14291035 15.27099609 47.82006836 C15.29240125 50.23100218 15.33903426 52.64032784 15.390625 55.05078125 C15.39185364 55.80087967 15.39308228 56.55097809 15.39434814 57.32380676 C15.51039558 61.58595836 15.51039558 61.58595836 17.890625 64.97851562 C20.37073792 66.17953327 22.00877864 66.30843624 24.75 66.1875 C26.1525 66.125625 27.555 66.06375 29 66 C29 69.63 29 73.26 29 77 C25.43559582 78.18813473 22.44525218 78.24187953 18.6875 78.3125 C17.39199219 78.34988281 16.09648438 78.38726563 14.76171875 78.42578125 C10.39089079 77.93105618 8.35190611 76.80144646 5 74 C3.57421875 72.03515625 3.57421875 72.03515625 2.6875 70.0625 C2.38199219 69.41410156 2.07648437 68.76570312 1.76171875 68.09765625 C-0.01372754 63.20835031 -0.13585659 58.44449896 -0.09765625 53.29296875 C-0.0962413 52.56757401 -0.09482635 51.84217926 -0.09336853 51.09480286 C-0.08779931 48.7923255 -0.07525261 46.48994765 -0.0625 44.1875 C-0.05748102 42.62044412 -0.05291881 41.0533867 -0.04882812 39.48632812 C-0.03783998 35.65751411 -0.02059673 31.82877389 0 28 C-3.3 28 -6.6 28 -10 28 C-10 24.04 -10 20.08 -10 16 C-6.7 16 -3.4 16 0 16 C0 10.72 0 5.44 0 0 Z " fill="#203443" transform="translate(715,536)"></path><path d="M0 0 C4.97527744 2.87631654 6.62233016 4.78741613 9 10 C8.65595823 13.42056916 7.35242344 14.96143844 4.875 17.25 C2.35608969 19.65673212 0.0037948 22.09335299 -2.25 24.75 C-6.86999205 30.1206086 -11.9531974 35.03533342 -17 40 C-15.58261511 43.25207092 -13.87473588 45.31361067 -11.3125 47.75 C-7.92339439 51.05330547 -4.7463992 54.45094794 -1.6796875 58.0546875 C-0.55201859 59.36068544 0.61070907 60.63714669 1.8046875 61.8828125 C2.64386719 62.77613281 2.64386719 62.77613281 3.5 63.6875 C4.0053125 64.20699219 4.510625 64.72648438 5.03125 65.26171875 C6 67 6 67 5.87890625 69.4375 C4.86345771 72.39809664 3.56409586 74.03124262 1.4375 76.3125 C0.79683594 77.00988281 0.15617187 77.70726562 -0.50390625 78.42578125 C-0.99761719 78.94527344 -1.49132812 79.46476563 -2 80 C-7.42593862 75.52783965 -12.23396684 70.72570259 -17 65.5625 C-21.41534826 60.80458161 -25.862542 56.10768467 -30.47314453 51.53833008 C-32.38018473 49.61695811 -34.17304605 47.61502807 -35.9375 45.5625 C-36.52402344 44.88316406 -37.11054688 44.20382812 -37.71484375 43.50390625 C-38.13894531 43.00761719 -38.56304687 42.51132812 -39 42 C-34.10129608 30.9689599 -21.90098981 21.78147125 -13.4375 13.375 C-12.1293222 12.07185054 -10.82137783 10.7684667 -9.51367188 9.46484375 C-6.34512786 6.30719208 -3.17345823 3.1527125 0 0 Z " fill="#1B303F" transform="translate(296,475)"></path><path d="M0 0 C5.24178488 4.32987643 9.90627291 8.93175821 14.5 13.9375 C18.74071099 18.53233222 23.02058071 23.05792979 27.45996094 27.46166992 C29.32213562 29.32177814 31.11985932 31.22611007 32.875 33.1875 C33.44992187 33.82042969 34.02484375 34.45335937 34.6171875 35.10546875 C36.13024448 37.1784423 36.66747084 38.46599083 37 41 C35.23083302 43.46824856 33.48237992 45.5910403 31.4375 47.8125 C30.85339355 48.46613525 30.26928711 49.11977051 29.66748047 49.79321289 C24.24063602 55.8329053 18.68413582 61.75714341 13.109375 67.66015625 C10.07624339 70.8867181 7.19828243 74.22268518 4.4296875 77.6796875 C2.69482591 79.28182744 1.30192162 79.61469981 -1 80 C-1.96355244 78.92130607 -2.92061417 77.83681257 -3.875 76.75 C-4.40867187 76.14671875 -4.94234375 75.5434375 -5.4921875 74.921875 C-6.9797487 73.02581254 -8.00322436 71.18709995 -9 69 C-8.35933594 68.29875 -7.71867187 67.5975 -7.05859375 66.875 C-2.57195441 61.95373837 1.89246992 57.01838782 6.26171875 51.9921875 C9.48012629 48.30367549 12.74309189 44.65450469 16 41 C14.6691087 38.07203915 13.19292608 35.90919729 10.98828125 33.57421875 C10.39466797 32.94193359 9.80105469 32.30964844 9.18945312 31.65820312 C8.57005859 31.00787109 7.95066406 30.35753906 7.3125 29.6875 C6.71244141 29.04876953 6.11238281 28.41003906 5.49414062 27.75195312 C1.83140315 23.86841412 1.83140315 23.86841412 -1.98291016 20.13525391 C-6.70305995 15.68276012 -6.70305995 15.68276012 -8.1484375 12.359375 C-7.9436683 9.10462239 -6.71780134 7.71503874 -4.625 5.25 C-3.65433594 4.08210938 -3.65433594 4.08210938 -2.6640625 2.890625 C-1.79832306 1.90701493 -0.92655101 0.92655101 0 0 Z " fill="#1B303E" transform="translate(363,474)"></path><path d="M0 0 C0.78503906 -0.00257813 1.57007813 -0.00515625 2.37890625 -0.0078125 C4.4375 0.125 4.4375 0.125 6.4375 1.125 C6.4375 5.745 6.4375 10.365 6.4375 15.125 C4.9525 15.0425 3.4675 14.96 1.9375 14.875 C-3.39983474 14.875 -7.20154442 16.05346158 -11.5625 19.125 C-15.95506681 23.80095822 -15.75689847 28.83445627 -15.87890625 34.94921875 C-15.89968735 35.81061966 -15.92046844 36.67202057 -15.94187927 37.55952454 C-16.00724909 40.31043544 -16.06620132 43.06144156 -16.125 45.8125 C-16.16819717 47.67774421 -16.21181185 49.5429788 -16.25585938 51.40820312 C-16.36291763 55.98037124 -16.46422054 60.5526351 -16.5625 65.125 C-21.5125 65.125 -26.4625 65.125 -31.5625 65.125 C-31.5625 44.335 -31.5625 23.545 -31.5625 2.125 C-27.2725 2.125 -22.9825 2.125 -18.5625 2.125 C-18.5625 4.765 -18.5625 7.405 -18.5625 10.125 C-17.9025 10.125 -17.2425 10.125 -16.5625 10.125 C-16.376875 9.568125 -16.19125 9.01125 -16 8.4375 C-12.47144832 2.76113425 -6.54809538 -0.02157527 0 0 Z " fill="#1B2F3E" transform="translate(782.5625,434.875)"></path><path d="M0 0 C0 4.62 0 9.24 0 14 C-1.485 13.9175 -2.97 13.835 -4.5 13.75 C-9.79532003 13.77250136 -13.80153484 14.67419503 -18 18 C-22.68542738 23.85338899 -23.15441684 29.82641294 -23.31640625 37.046875 C-23.33718735 37.81807678 -23.35796844 38.58927856 -23.37937927 39.3838501 C-23.44458572 41.83914572 -23.50362484 44.29454521 -23.5625 46.75 C-23.60571274 48.41797935 -23.6493279 50.08594832 -23.69335938 51.75390625 C-23.80023736 55.83583196 -23.90158566 59.91786182 -24 64 C-28.62 64 -33.24 64 -38 64 C-38 43.21 -38 22.42 -38 1 C-33.71 1 -29.42 1 -25 1 C-25 3.64 -25 6.28 -25 9 C-24.34 9 -23.68 9 -23 9 C-22.814375 8.443125 -22.62875 7.88625 -22.4375 7.3125 C-20.07414285 3.51057762 -16.27632297 0.72327611 -11.99609375 -0.63671875 C-7.82935168 -1.3950495 -4.00891501 -1.336305 0 0 Z " fill="#1B2E3D" transform="translate(679,436)"></path><path d="M0 0 C0 4.62 0 9.24 0 14 C-1.69125 13.938125 -3.3825 13.87625 -5.125 13.8125 C-9.87151115 13.82468616 -13.02613225 14.1892155 -17 17 C-22.11517312 22.39166897 -22.16010607 27.09418261 -22.31640625 34.265625 C-22.33718735 35.05902283 -22.35796844 35.85242065 -22.37937927 36.66986084 C-22.44459973 39.19648844 -22.50363144 41.72321721 -22.5625 44.25 C-22.6057114 45.96615616 -22.64932653 47.68230222 -22.69335938 49.3984375 C-22.80025283 53.59885546 -22.90159729 57.79937489 -23 62 C-27.62 62 -32.24 62 -37 62 C-37 41.87 -37 21.74 -37 1 C-32.71 1 -28.42 1 -24 1 C-23.67 3.31 -23.34 5.62 -23 8 C-21.9171875 6.8553125 -21.9171875 6.8553125 -20.8125 5.6875 C-14.02259352 -0.80063286 -9.15579096 -0.27744821 0 0 Z " fill="#1B2F3E" transform="translate(576,551)"></path><path d="M0 0 C4.87674021 3.32505014 7.91525815 7.29738478 9.75 12.875 C10.47530309 19.78892812 10.3221776 25.83925164 6.75 31.875 C3.56387928 35.45938581 0.77878558 38.56138472 -4.10546875 39.31640625 C-10.02752164 39.5316274 -14.26853279 39.63552375 -18.9375 35.6875 C-23.28861533 31.41092198 -24.50016123 27.21210875 -24.68139648 21.15136719 C-24.7159485 9.32628494 -24.7159485 9.32628494 -20.79296875 4.359375 C-14.64571133 -1.55444226 -8.09804215 -2.80316844 0 0 Z " fill="#FAFBFB" transform="translate(607.25,449.125)"></path><path d="M0 0 C4.23301121 2.82200747 7.17159664 5.95228992 8.8125 10.875 C8.95953064 13.30948818 9.03355339 15.7487477 9.0625 18.1875 C9.08828125 19.48300781 9.1140625 20.77851562 9.140625 22.11328125 C8.73291742 26.78735749 7.49831581 30.06907518 4.27734375 33.51953125 C-1.14498437 37.66601746 -4.41068654 38.66377665 -11.1875 37.875 C-16.48931075 36.06990879 -19.58852325 32.77307157 -22.1875 27.875 C-24.17546384 21.91110847 -23.84373187 14.9818497 -22 9.0625 C-16.91964375 0.12808039 -9.87552996 -3.48548116 0 0 Z " fill="#FAFAFB" transform="translate(615.1875,564.125)"></path><path d="M0 0 C4.68573046 2.65230026 6.63252293 5.83506878 8.3125 10.875 C8.94396517 20.43198254 9.10566148 28.20649357 2.875 35.875 C-0.96337632 38.68661065 -5.16167154 38.63149067 -9.7734375 38.4140625 C-14.40256688 37.55773562 -16.99545256 35.7005411 -19.6875 31.875 C-23.31715139 24.90293583 -23.91895192 17.18202614 -21.625 9.6875 C-17.74328967 0.35646556 -9.33769585 -2.84878856 0 0 Z " fill="#FAFAFA" transform="translate(910.6875,564.125)"></path><path d="M0 0 C4.62 0 9.24 0 14 0 C14 20.79 14 41.58 14 63 C9.38 63 4.76 63 0 63 C0 42.21 0 21.42 0 0 Z " fill="#1A2D3B" transform="translate(540,437)"></path><path d="M0 0 C0.61986755 10.6410596 0.61986755 10.6410596 -1.625 15.5625 C-5.69803617 19.74272133 -9.23529872 21.17108311 -15 21.5 C-18.42506831 21.37582834 -20.798547 20.98253576 -23.625 19 C-25.93566804 16.08126143 -26.4170204 15.41465886 -26.625 11.9375 C-26 8 -26 8 -24.6875 5.625 C-20.42670735 3.04870677 -15.8698809 2.71766666 -11 2 C-9.12270702 1.63665297 -7.2474755 1.26240872 -5.375 0.875 C-1.10769231 0 -1.10769231 0 0 0 Z " fill="#F8F9FA" transform="translate(724,470)"></path><path d="M0 0 C2.81139027 2.40976309 4.47652362 4.57978624 6.1875 7.875 C6.1875 10.185 6.1875 12.495 6.1875 14.875 C-3.0525 14.875 -12.2925 14.875 -21.8125 14.875 C-20.81387119 7.88459835 -19.91575437 4.53493232 -14.625 0 C-9.69810866 -1.97075654 -4.92689134 -1.97075654 0 0 Z " fill="#FAFBFB" transform="translate(784.8125,562.125)"></path><path d="M0 0 C4.62 0 9.24 0 14 0 C14 11.22 14 22.44 14 34 C13.67 34 13.34 34 13 34 C13 23.44 13 12.88 13 2 C9.37 2 5.74 2 2 2 C2 31.04 2 60.08 2 90 C5.63 90 9.26 90 13 90 C13 88.02 13 86.04 13 84 C13.33 84 13.66 84 14 84 C14 86.31 14 88.62 14 91 C9.38 91 4.76 91 0 91 C0 60.97 0 30.94 0 0 Z " fill="#0E1D2D" transform="translate(568,409)"></path><path d="M0 0 C3.32635764 2.18839318 3.90585122 3.62340488 4.875 7.5 C5.04878049 12.36585366 5.04878049 12.36585366 3 15 C0.378587 17.11729512 -1.82290179 17.11871289 -5.0625 16.875 C-7.76558207 16.43203683 -8.83293346 16.13574157 -11 14.375 C-12.43348212 10.97047997 -12.51361669 8.65951893 -12 5 C-8.59008657 0.14345663 -5.84624621 -0.95665847 0 0 Z " fill="#1B2E3E" transform="translate(551,409)"></path><path d="M0 0 C4.62 0 9.24 0 14 0 C14.33 2.31 14.66 4.62 15 7 C15.66 6.01 16.32 5.02 17 4 C17.66 4.33 18.32 4.66 19 5 C18.01 6.32 17.02 7.64 16 9 C14.68 8.67 13.36 8.34 12 8 C12 6.02 12 4.04 12 2 C8.7 2 5.4 2 2 2 C2 21.14 2 40.28 2 60 C5.63 60 9.26 60 13 60 C12.98952637 58.86457764 12.97905273 57.72915527 12.96826172 56.55932617 C12.93207945 52.34939727 12.90910598 48.13948213 12.89013672 43.92944336 C12.88007509 42.10682871 12.8664244 40.28423021 12.84912109 38.46166992 C12.82487979 35.84289565 12.81351862 33.22433469 12.8046875 30.60546875 C12.79436493 29.78974899 12.78404236 28.97402924 12.77340698 28.1335907 C12.7726314 24.22869244 12.78349339 22.32475992 15 19 C14.67 32.86 14.34 46.72 14 61 C9.38 61 4.76 61 0 61 C0 40.87 0 20.74 0 0 Z " fill="#091827" transform="translate(813,552)"></path><path d="M0 0 C2.97 0 5.94 0 9 0 C9 4.62 9 9.24 9 14 C6.29817708 13.96744792 3.59635417 13.93489583 0.89453125 13.90234375 C-1.85576513 13.99513378 -4.32479591 14.37888315 -7 15 C-6 13 -6 13 -3 12 C-1.27204648 11.93197033 0.45835365 11.91504355 2.1875 11.9375 C3.775625 11.958125 5.36375 11.97875 7 12 C7 8.37 7 4.74 7 1 C4.69 1 2.38 1 0 1 C0 0.67 0 0.34 0 0 Z " fill="#101A27" transform="translate(567,551)"></path><path d="M0 0 C0.99 0 1.98 0 3 0 C3 5.61 3 11.22 3 17 C2.01 16.67 1.02 16.34 0 16 C0 10.72 0 5.44 0 0 Z " fill="#253848" transform="translate(874,574)"></path><path d="M0 0 C5.61 0 11.22 0 17 0 C17 0.66 17 1.32 17 2 C12.38 2.33 7.76 2.66 3 3 C2.67 3.99 2.34 4.98 2 6 C1.34 4.02 0.68 2.04 0 0 Z " fill="#2E3946" transform="translate(793,436)"></path><path d="M0 0 C1.27847309 3.61233001 0.71332411 6.04606751 -0.3125 9.6875 C-0.57675781 10.66074219 -0.84101563 11.63398438 -1.11328125 12.63671875 C-2 15 -2 15 -4 16 C-3.67 12.7 -3.34 9.4 -3 6 C-2.34 6 -1.68 6 -1 6 C-0.67 4.02 -0.34 2.04 0 0 Z " fill="#94CFEE" transform="translate(331,469)"></path><path d="M0 0 C0.66 0.99 1.32 1.98 2 3 C1.34 3.66 0.68 4.32 0 5 C-1.01241685 6.32392972 -2.01439389 7.65599167 -3 9 C-3.99 8.67 -4.98 8.34 -6 8 C-4.02 5.36 -2.04 2.72 0 0 Z " fill="#112131" transform="translate(622,593)"></path><path d="M0 0 C0.99 0.33 1.98 0.66 3 1 C1.625 3 1.625 3 0 5 C-0.66 5 -1.32 5 -2 5 C-2.66 6.32 -3.32 7.64 -4 9 C-3.46930939 5.17902761 -2.50298434 2.93828597 0 0 Z " fill="#162433" transform="translate(690,442)"></path><path d="M0 0 C1.10740461 3.32221382 0.97233311 5.64103108 0 9 C-0.66 9.66 -1.32 10.32 -2 11 C-1.85892253 9.54119891 -1.71197585 8.08296449 -1.5625 6.625 C-1.48128906 5.81289063 -1.40007812 5.00078125 -1.31640625 4.1640625 C-1 2 -1 2 0 0 Z " fill="#12222F" transform="translate(320,516)"></path><path d="M0 0 C0.33 0 0.66 0 1 0 C1 2.31 1 4.62 1 7 C-0.32 7 -1.64 7 -3 7 C-2.25 2.25 -2.25 2.25 0 0 Z " fill="#E7EAEB" transform="translate(724,493)"></path></svg>